<svg xmlns="http://www.w3.org/2000/svg" width="42" height="6.97" viewBox="0 0 42 6.97">
  <defs>
    <style>
      .cls-1 {
        fill: #9197a1;
        fill-rule: evenodd;
      }
    </style>
  </defs>
  <path id="arrow.svg" class="cls-1" d="M1030,1254.14h39.57l-1.83,1.64a0.632,0.632,0,0,0-.19.37,0.527,0.527,0,0,0,.12.38l0.14,0.19a0.58,0.58,0,0,0,.8,0l2.98-2.7a0.022,0.022,0,0,0,.02-0.02l0.19-.19a0.451,0.451,0,0,0,.16-0.36,0.528,0.528,0,0,0-.16-0.39l-0.19-.19h-0.02v-0.02l-3.03-2.77a1.281,1.281,0,0,0-.2-0.11,0.466,0.466,0,0,0-.42,0,0.555,0.555,0,0,0-.17.11l-0.15.19a0.468,0.468,0,0,0-.11.38,0.58,0.58,0,0,0,.19.37l1.78,1.62h-39.5Z" transform="translate(-1029.97 -1249.91)"/>
</svg>
